<mxfile host="app.diagrams.net" modified="2023-09-18T10:06:26.894Z" agent="Mozilla/5.0 (Windows NT 10.0; Win64; x64) AppleWebKit/537.36 (KHTML, like Gecko) Chrome/117.0.0.0 Safari/537.36" etag="E6-BmX3R7sMY0HTZEfLD" version="21.7.5" type="github">
  <diagram id="R2lEEEUBdFMjLlhIrx00" name="Page-1">
    <mxGraphModel dx="2049" dy="2396" grid="1" gridSize="10" guides="1" tooltips="1" connect="1" arrows="1" fold="1" page="1" pageScale="1" pageWidth="850" pageHeight="1100" math="0" shadow="0" extFonts="Permanent Marker^https://fonts.googleapis.com/css?family=Permanent+Marker">
      <root>
        <mxCell id="0" />
        <mxCell id="1" parent="0" />
        <mxCell id="ZCHWy88z7wc9WbKpo-dU-73" style="edgeStyle=none;shape=connector;rounded=0;orthogonalLoop=1;jettySize=auto;html=1;entryX=0.274;entryY=1.012;entryDx=0;entryDy=0;entryPerimeter=0;labelBackgroundColor=default;strokeColor=default;fontFamily=Helvetica;fontSize=12;fontColor=default;endArrow=none;endFill=0;" edge="1" parent="1" source="ZCHWy88z7wc9WbKpo-dU-1" target="ZCHWy88z7wc9WbKpo-dU-7">
          <mxGeometry relative="1" as="geometry" />
        </mxCell>
        <mxCell id="ZCHWy88z7wc9WbKpo-dU-74" style="edgeStyle=none;shape=connector;rounded=0;orthogonalLoop=1;jettySize=auto;html=1;labelBackgroundColor=default;strokeColor=default;fontFamily=Helvetica;fontSize=12;fontColor=default;endArrow=none;endFill=0;entryX=0.298;entryY=1.013;entryDx=0;entryDy=0;entryPerimeter=0;" edge="1" parent="1" source="ZCHWy88z7wc9WbKpo-dU-1" target="ZCHWy88z7wc9WbKpo-dU-36">
          <mxGeometry relative="1" as="geometry">
            <mxPoint x="610" y="-170" as="targetPoint" />
          </mxGeometry>
        </mxCell>
        <mxCell id="ZCHWy88z7wc9WbKpo-dU-75" style="edgeStyle=none;shape=connector;rounded=0;orthogonalLoop=1;jettySize=auto;html=1;entryX=0.5;entryY=1;entryDx=0;entryDy=0;labelBackgroundColor=default;strokeColor=default;fontFamily=Helvetica;fontSize=12;fontColor=default;endArrow=none;endFill=0;" edge="1" parent="1" source="ZCHWy88z7wc9WbKpo-dU-1" target="ZCHWy88z7wc9WbKpo-dU-37">
          <mxGeometry relative="1" as="geometry" />
        </mxCell>
        <mxCell id="ZCHWy88z7wc9WbKpo-dU-76" style="edgeStyle=none;shape=connector;rounded=0;orthogonalLoop=1;jettySize=auto;html=1;entryX=0.786;entryY=1.012;entryDx=0;entryDy=0;entryPerimeter=0;labelBackgroundColor=default;strokeColor=default;fontFamily=Helvetica;fontSize=12;fontColor=default;endArrow=none;endFill=0;" edge="1" parent="1" source="ZCHWy88z7wc9WbKpo-dU-1" target="ZCHWy88z7wc9WbKpo-dU-48">
          <mxGeometry relative="1" as="geometry" />
        </mxCell>
        <mxCell id="ZCHWy88z7wc9WbKpo-dU-77" style="edgeStyle=none;shape=connector;rounded=0;orthogonalLoop=1;jettySize=auto;html=1;entryX=1;entryY=1;entryDx=0;entryDy=0;labelBackgroundColor=default;strokeColor=default;fontFamily=Helvetica;fontSize=12;fontColor=default;endArrow=none;endFill=0;" edge="1" parent="1" source="ZCHWy88z7wc9WbKpo-dU-1" target="ZCHWy88z7wc9WbKpo-dU-47">
          <mxGeometry relative="1" as="geometry" />
        </mxCell>
        <mxCell id="ZCHWy88z7wc9WbKpo-dU-103" style="edgeStyle=none;shape=connector;rounded=0;orthogonalLoop=1;jettySize=auto;html=1;entryX=0;entryY=0;entryDx=0;entryDy=0;labelBackgroundColor=default;strokeColor=default;fontFamily=Helvetica;fontSize=12;fontColor=default;endArrow=none;endFill=0;" edge="1" parent="1" source="ZCHWy88z7wc9WbKpo-dU-1" target="ZCHWy88z7wc9WbKpo-dU-101">
          <mxGeometry relative="1" as="geometry" />
        </mxCell>
        <mxCell id="ZCHWy88z7wc9WbKpo-dU-105" style="edgeStyle=none;shape=connector;rounded=0;orthogonalLoop=1;jettySize=auto;html=1;labelBackgroundColor=default;strokeColor=default;fontFamily=Helvetica;fontSize=12;fontColor=default;endArrow=none;endFill=0;" edge="1" parent="1" source="ZCHWy88z7wc9WbKpo-dU-1" target="ZCHWy88z7wc9WbKpo-dU-102">
          <mxGeometry relative="1" as="geometry" />
        </mxCell>
        <mxCell id="ZCHWy88z7wc9WbKpo-dU-108" style="edgeStyle=none;shape=connector;rounded=0;orthogonalLoop=1;jettySize=auto;html=1;entryX=0.713;entryY=0.175;entryDx=0;entryDy=0;entryPerimeter=0;labelBackgroundColor=default;strokeColor=default;fontFamily=Helvetica;fontSize=12;fontColor=default;endArrow=none;endFill=0;" edge="1" parent="1" source="ZCHWy88z7wc9WbKpo-dU-1" target="ZCHWy88z7wc9WbKpo-dU-107">
          <mxGeometry relative="1" as="geometry" />
        </mxCell>
        <mxCell id="ZCHWy88z7wc9WbKpo-dU-1" value="DEPARTMENT" style="rounded=1;whiteSpace=wrap;html=1;fontStyle=1" vertex="1" parent="1">
          <mxGeometry x="510" y="-40" width="120" height="60" as="geometry" />
        </mxCell>
        <mxCell id="ZCHWy88z7wc9WbKpo-dU-78" style="edgeStyle=none;shape=connector;rounded=0;orthogonalLoop=1;jettySize=auto;html=1;labelBackgroundColor=default;strokeColor=default;fontFamily=Helvetica;fontSize=12;fontColor=default;endArrow=none;endFill=0;" edge="1" parent="1" source="ZCHWy88z7wc9WbKpo-dU-4" target="ZCHWy88z7wc9WbKpo-dU-39">
          <mxGeometry relative="1" as="geometry" />
        </mxCell>
        <mxCell id="ZCHWy88z7wc9WbKpo-dU-79" style="edgeStyle=none;shape=connector;rounded=0;orthogonalLoop=1;jettySize=auto;html=1;entryX=1;entryY=0.5;entryDx=0;entryDy=0;labelBackgroundColor=default;strokeColor=default;fontFamily=Helvetica;fontSize=12;fontColor=default;endArrow=none;endFill=0;" edge="1" parent="1" source="ZCHWy88z7wc9WbKpo-dU-4" target="ZCHWy88z7wc9WbKpo-dU-40">
          <mxGeometry relative="1" as="geometry" />
        </mxCell>
        <mxCell id="ZCHWy88z7wc9WbKpo-dU-80" style="edgeStyle=none;shape=connector;rounded=0;orthogonalLoop=1;jettySize=auto;html=1;entryX=0.988;entryY=0.367;entryDx=0;entryDy=0;entryPerimeter=0;labelBackgroundColor=default;strokeColor=default;fontFamily=Helvetica;fontSize=12;fontColor=default;endArrow=none;endFill=0;" edge="1" parent="1" source="ZCHWy88z7wc9WbKpo-dU-4" target="ZCHWy88z7wc9WbKpo-dU-41">
          <mxGeometry relative="1" as="geometry" />
        </mxCell>
        <mxCell id="ZCHWy88z7wc9WbKpo-dU-111" style="edgeStyle=none;shape=connector;rounded=0;orthogonalLoop=1;jettySize=auto;html=1;entryX=0.5;entryY=0;entryDx=0;entryDy=0;labelBackgroundColor=default;strokeColor=default;fontFamily=Helvetica;fontSize=12;fontColor=default;endArrow=none;endFill=0;" edge="1" parent="1" source="ZCHWy88z7wc9WbKpo-dU-4" target="ZCHWy88z7wc9WbKpo-dU-110">
          <mxGeometry relative="1" as="geometry" />
        </mxCell>
        <mxCell id="ZCHWy88z7wc9WbKpo-dU-4" value="SECTION" style="rounded=1;whiteSpace=wrap;html=1;fontStyle=1" vertex="1" parent="1">
          <mxGeometry x="730" y="568" width="120" height="60" as="geometry" />
        </mxCell>
        <mxCell id="ZCHWy88z7wc9WbKpo-dU-81" style="edgeStyle=none;shape=connector;rounded=0;orthogonalLoop=1;jettySize=auto;html=1;entryX=0.786;entryY=0.096;entryDx=0;entryDy=0;entryPerimeter=0;labelBackgroundColor=default;strokeColor=default;fontFamily=Helvetica;fontSize=12;fontColor=default;endArrow=none;endFill=0;" edge="1" parent="1" source="ZCHWy88z7wc9WbKpo-dU-5" target="ZCHWy88z7wc9WbKpo-dU-42">
          <mxGeometry relative="1" as="geometry" />
        </mxCell>
        <mxCell id="ZCHWy88z7wc9WbKpo-dU-82" style="edgeStyle=none;shape=connector;rounded=0;orthogonalLoop=1;jettySize=auto;html=1;entryX=1;entryY=0;entryDx=0;entryDy=0;labelBackgroundColor=default;strokeColor=default;fontFamily=Helvetica;fontSize=12;fontColor=default;endArrow=none;endFill=0;" edge="1" parent="1" source="ZCHWy88z7wc9WbKpo-dU-5" target="ZCHWy88z7wc9WbKpo-dU-43">
          <mxGeometry relative="1" as="geometry" />
        </mxCell>
        <mxCell id="ZCHWy88z7wc9WbKpo-dU-83" style="edgeStyle=none;shape=connector;rounded=0;orthogonalLoop=1;jettySize=auto;html=1;entryX=0.5;entryY=0;entryDx=0;entryDy=0;labelBackgroundColor=default;strokeColor=default;fontFamily=Helvetica;fontSize=12;fontColor=default;endArrow=none;endFill=0;" edge="1" parent="1" source="ZCHWy88z7wc9WbKpo-dU-5" target="ZCHWy88z7wc9WbKpo-dU-44">
          <mxGeometry relative="1" as="geometry" />
        </mxCell>
        <mxCell id="ZCHWy88z7wc9WbKpo-dU-84" style="edgeStyle=none;shape=connector;rounded=0;orthogonalLoop=1;jettySize=auto;html=1;entryX=0.345;entryY=-0.029;entryDx=0;entryDy=0;entryPerimeter=0;labelBackgroundColor=default;strokeColor=default;fontFamily=Helvetica;fontSize=12;fontColor=default;endArrow=none;endFill=0;" edge="1" parent="1" source="ZCHWy88z7wc9WbKpo-dU-5" target="ZCHWy88z7wc9WbKpo-dU-45">
          <mxGeometry relative="1" as="geometry" />
        </mxCell>
        <mxCell id="ZCHWy88z7wc9WbKpo-dU-85" style="edgeStyle=none;shape=connector;rounded=0;orthogonalLoop=1;jettySize=auto;html=1;entryX=0.286;entryY=0.054;entryDx=0;entryDy=0;entryPerimeter=0;labelBackgroundColor=default;strokeColor=default;fontFamily=Helvetica;fontSize=12;fontColor=default;endArrow=none;endFill=0;" edge="1" parent="1" source="ZCHWy88z7wc9WbKpo-dU-5" target="ZCHWy88z7wc9WbKpo-dU-46">
          <mxGeometry relative="1" as="geometry" />
        </mxCell>
        <mxCell id="ZCHWy88z7wc9WbKpo-dU-114" style="edgeStyle=none;shape=connector;rounded=0;orthogonalLoop=1;jettySize=auto;html=1;entryX=0.175;entryY=0.313;entryDx=0;entryDy=0;entryPerimeter=0;labelBackgroundColor=default;strokeColor=default;fontFamily=Helvetica;fontSize=12;fontColor=default;endArrow=none;endFill=0;" edge="1" parent="1" source="ZCHWy88z7wc9WbKpo-dU-5" target="ZCHWy88z7wc9WbKpo-dU-113">
          <mxGeometry relative="1" as="geometry" />
        </mxCell>
        <mxCell id="ZCHWy88z7wc9WbKpo-dU-5" value="COURSE" style="rounded=1;whiteSpace=wrap;html=1;fontStyle=1" vertex="1" parent="1">
          <mxGeometry x="222.5" y="290" width="120" height="60" as="geometry" />
        </mxCell>
        <mxCell id="ZCHWy88z7wc9WbKpo-dU-62" style="rounded=0;orthogonalLoop=1;jettySize=auto;html=1;entryX=0.5;entryY=1;entryDx=0;entryDy=0;fontFamily=Helvetica;fontSize=12;fontColor=default;endArrow=none;endFill=0;" edge="1" parent="1" source="ZCHWy88z7wc9WbKpo-dU-6" target="ZCHWy88z7wc9WbKpo-dU-50">
          <mxGeometry relative="1" as="geometry" />
        </mxCell>
        <mxCell id="ZCHWy88z7wc9WbKpo-dU-64" style="edgeStyle=none;shape=connector;rounded=0;orthogonalLoop=1;jettySize=auto;html=1;labelBackgroundColor=default;strokeColor=default;fontFamily=Helvetica;fontSize=12;fontColor=default;endArrow=none;endFill=0;" edge="1" parent="1" source="ZCHWy88z7wc9WbKpo-dU-6" target="ZCHWy88z7wc9WbKpo-dU-51">
          <mxGeometry relative="1" as="geometry" />
        </mxCell>
        <mxCell id="ZCHWy88z7wc9WbKpo-dU-65" style="edgeStyle=none;shape=connector;rounded=0;orthogonalLoop=1;jettySize=auto;html=1;labelBackgroundColor=default;strokeColor=default;fontFamily=Helvetica;fontSize=12;fontColor=default;endArrow=none;endFill=0;" edge="1" parent="1" source="ZCHWy88z7wc9WbKpo-dU-6" target="ZCHWy88z7wc9WbKpo-dU-53">
          <mxGeometry relative="1" as="geometry" />
        </mxCell>
        <mxCell id="ZCHWy88z7wc9WbKpo-dU-66" style="edgeStyle=none;shape=connector;rounded=0;orthogonalLoop=1;jettySize=auto;html=1;labelBackgroundColor=default;strokeColor=default;fontFamily=Helvetica;fontSize=12;fontColor=default;endArrow=none;endFill=0;" edge="1" parent="1" source="ZCHWy88z7wc9WbKpo-dU-6" target="ZCHWy88z7wc9WbKpo-dU-54">
          <mxGeometry relative="1" as="geometry" />
        </mxCell>
        <mxCell id="ZCHWy88z7wc9WbKpo-dU-67" style="edgeStyle=none;shape=connector;rounded=0;orthogonalLoop=1;jettySize=auto;html=1;labelBackgroundColor=default;strokeColor=default;fontFamily=Helvetica;fontSize=12;fontColor=default;endArrow=none;endFill=0;entryX=0;entryY=1;entryDx=0;entryDy=0;" edge="1" parent="1" source="ZCHWy88z7wc9WbKpo-dU-6" target="ZCHWy88z7wc9WbKpo-dU-55">
          <mxGeometry relative="1" as="geometry">
            <mxPoint x="1040" y="140" as="targetPoint" />
          </mxGeometry>
        </mxCell>
        <mxCell id="ZCHWy88z7wc9WbKpo-dU-68" style="edgeStyle=none;shape=connector;rounded=0;orthogonalLoop=1;jettySize=auto;html=1;exitX=1;exitY=0.5;exitDx=0;exitDy=0;entryX=0.063;entryY=0.86;entryDx=0;entryDy=0;entryPerimeter=0;labelBackgroundColor=default;strokeColor=default;fontFamily=Helvetica;fontSize=12;fontColor=default;endArrow=none;endFill=0;" edge="1" parent="1" source="ZCHWy88z7wc9WbKpo-dU-6" target="ZCHWy88z7wc9WbKpo-dU-88">
          <mxGeometry relative="1" as="geometry" />
        </mxCell>
        <mxCell id="ZCHWy88z7wc9WbKpo-dU-69" style="edgeStyle=none;shape=connector;rounded=0;orthogonalLoop=1;jettySize=auto;html=1;labelBackgroundColor=default;strokeColor=default;fontFamily=Helvetica;fontSize=12;fontColor=default;endArrow=none;endFill=0;exitX=1.014;exitY=0.606;exitDx=0;exitDy=0;exitPerimeter=0;" edge="1" parent="1" source="ZCHWy88z7wc9WbKpo-dU-6" target="ZCHWy88z7wc9WbKpo-dU-57">
          <mxGeometry relative="1" as="geometry" />
        </mxCell>
        <mxCell id="ZCHWy88z7wc9WbKpo-dU-70" style="edgeStyle=none;shape=connector;rounded=0;orthogonalLoop=1;jettySize=auto;html=1;labelBackgroundColor=default;strokeColor=default;fontFamily=Helvetica;fontSize=12;fontColor=default;endArrow=none;endFill=0;" edge="1" parent="1" source="ZCHWy88z7wc9WbKpo-dU-6" target="ZCHWy88z7wc9WbKpo-dU-58">
          <mxGeometry relative="1" as="geometry" />
        </mxCell>
        <mxCell id="ZCHWy88z7wc9WbKpo-dU-71" style="edgeStyle=none;shape=connector;rounded=0;orthogonalLoop=1;jettySize=auto;html=1;entryX=0.226;entryY=-0.008;entryDx=0;entryDy=0;entryPerimeter=0;labelBackgroundColor=default;strokeColor=default;fontFamily=Helvetica;fontSize=12;fontColor=default;endArrow=none;endFill=0;" edge="1" parent="1" source="ZCHWy88z7wc9WbKpo-dU-6" target="ZCHWy88z7wc9WbKpo-dU-52">
          <mxGeometry relative="1" as="geometry" />
        </mxCell>
        <mxCell id="ZCHWy88z7wc9WbKpo-dU-72" style="edgeStyle=none;shape=connector;rounded=0;orthogonalLoop=1;jettySize=auto;html=1;entryX=0.5;entryY=1;entryDx=0;entryDy=0;labelBackgroundColor=default;strokeColor=default;fontFamily=Helvetica;fontSize=12;fontColor=default;endArrow=none;endFill=0;" edge="1" parent="1" source="ZCHWy88z7wc9WbKpo-dU-6" target="ZCHWy88z7wc9WbKpo-dU-49">
          <mxGeometry relative="1" as="geometry" />
        </mxCell>
        <mxCell id="ZCHWy88z7wc9WbKpo-dU-98" style="edgeStyle=none;shape=connector;rounded=0;orthogonalLoop=1;jettySize=auto;html=1;labelBackgroundColor=default;strokeColor=default;fontFamily=Helvetica;fontSize=12;fontColor=default;endArrow=none;endFill=0;" edge="1" parent="1" source="ZCHWy88z7wc9WbKpo-dU-6" target="ZCHWy88z7wc9WbKpo-dU-61">
          <mxGeometry relative="1" as="geometry" />
        </mxCell>
        <mxCell id="ZCHWy88z7wc9WbKpo-dU-6" value="STUDENT" style="rounded=1;whiteSpace=wrap;html=1;fontStyle=1" vertex="1" parent="1">
          <mxGeometry x="810" y="220" width="120" height="60" as="geometry" />
        </mxCell>
        <mxCell id="ZCHWy88z7wc9WbKpo-dU-7" value="college" style="ellipse;whiteSpace=wrap;html=1;" vertex="1" parent="1">
          <mxGeometry x="640" y="-160" width="70" height="40" as="geometry" />
        </mxCell>
        <mxCell id="ZCHWy88z7wc9WbKpo-dU-36" value="Office phone number" style="ellipse;whiteSpace=wrap;html=1;" vertex="1" parent="1">
          <mxGeometry x="590" y="-200" width="70" height="40" as="geometry" />
        </mxCell>
        <mxCell id="ZCHWy88z7wc9WbKpo-dU-37" value="Office number" style="ellipse;whiteSpace=wrap;html=1;fontStyle=4" vertex="1" parent="1">
          <mxGeometry x="510" y="-210" width="70" height="40" as="geometry" />
        </mxCell>
        <mxCell id="ZCHWy88z7wc9WbKpo-dU-38" value="Numeric grade" style="ellipse;whiteSpace=wrap;html=1;" vertex="1" parent="1">
          <mxGeometry x="890" y="470" width="70" height="40" as="geometry" />
        </mxCell>
        <mxCell id="ZCHWy88z7wc9WbKpo-dU-39" value="Instructor" style="ellipse;whiteSpace=wrap;html=1;" vertex="1" parent="1">
          <mxGeometry x="820" y="710" width="70" height="40" as="geometry" />
        </mxCell>
        <mxCell id="ZCHWy88z7wc9WbKpo-dU-40" value="Semester" style="ellipse;whiteSpace=wrap;html=1;" vertex="1" parent="1">
          <mxGeometry x="890" y="670" width="70" height="40" as="geometry" />
        </mxCell>
        <mxCell id="ZCHWy88z7wc9WbKpo-dU-41" value="Year" style="ellipse;whiteSpace=wrap;html=1;" vertex="1" parent="1">
          <mxGeometry x="655" y="650" width="70" height="40" as="geometry" />
        </mxCell>
        <mxCell id="ZCHWy88z7wc9WbKpo-dU-42" value="Name" style="ellipse;whiteSpace=wrap;html=1;" vertex="1" parent="1">
          <mxGeometry x="90" y="328" width="70" height="40" as="geometry" />
        </mxCell>
        <mxCell id="ZCHWy88z7wc9WbKpo-dU-43" value="Description" style="ellipse;whiteSpace=wrap;html=1;" vertex="1" parent="1">
          <mxGeometry x="100" y="390" width="70" height="40" as="geometry" />
        </mxCell>
        <mxCell id="ZCHWy88z7wc9WbKpo-dU-44" value="Course number" style="ellipse;whiteSpace=wrap;html=1;fontStyle=4" vertex="1" parent="1">
          <mxGeometry x="140" y="438" width="80" height="50" as="geometry" />
        </mxCell>
        <mxCell id="ZCHWy88z7wc9WbKpo-dU-45" value="Number of semester hours" style="ellipse;whiteSpace=wrap;html=1;" vertex="1" parent="1">
          <mxGeometry x="240" y="420" width="85" height="60" as="geometry" />
        </mxCell>
        <mxCell id="ZCHWy88z7wc9WbKpo-dU-46" value="level" style="ellipse;whiteSpace=wrap;html=1;" vertex="1" parent="1">
          <mxGeometry x="90" y="270" width="70" height="40" as="geometry" />
        </mxCell>
        <mxCell id="ZCHWy88z7wc9WbKpo-dU-47" value="Name" style="ellipse;whiteSpace=wrap;html=1;fontStyle=4" vertex="1" parent="1">
          <mxGeometry x="410" y="-140" width="70" height="40" as="geometry" />
        </mxCell>
        <mxCell id="ZCHWy88z7wc9WbKpo-dU-48" value="Department code" style="ellipse;whiteSpace=wrap;html=1;" vertex="1" parent="1">
          <mxGeometry x="450" y="-180" width="70" height="40" as="geometry" />
        </mxCell>
        <mxCell id="ZCHWy88z7wc9WbKpo-dU-49" value="class" style="ellipse;whiteSpace=wrap;html=1;" vertex="1" parent="1">
          <mxGeometry x="850" y="-10" width="80" height="40" as="geometry" />
        </mxCell>
        <mxCell id="ZCHWy88z7wc9WbKpo-dU-50" value="Name" style="ellipse;whiteSpace=wrap;html=1;" vertex="1" parent="1">
          <mxGeometry x="930" y="-20" width="80" height="50" as="geometry" />
        </mxCell>
        <mxCell id="ZCHWy88z7wc9WbKpo-dU-51" value="Student number" style="ellipse;whiteSpace=wrap;html=1;fontStyle=4" vertex="1" parent="1">
          <mxGeometry x="1010" y="-2" width="70" height="50" as="geometry" />
        </mxCell>
        <mxCell id="ZCHWy88z7wc9WbKpo-dU-52" value="sex" style="ellipse;whiteSpace=wrap;html=1;" vertex="1" parent="1">
          <mxGeometry x="1030" y="370" width="80" height="50" as="geometry" />
        </mxCell>
        <mxCell id="ZCHWy88z7wc9WbKpo-dU-53" value="Social Security number" style="ellipse;whiteSpace=wrap;html=1;fontStyle=4" vertex="1" parent="1">
          <mxGeometry x="1120" y="70" width="85" height="50" as="geometry" />
        </mxCell>
        <mxCell id="ZCHWy88z7wc9WbKpo-dU-54" value="Current address" style="ellipse;whiteSpace=wrap;html=1;" vertex="1" parent="1">
          <mxGeometry x="1085" y="18" width="70" height="50" as="geometry" />
        </mxCell>
        <mxCell id="ZCHWy88z7wc9WbKpo-dU-55" value="Current phone number" style="ellipse;whiteSpace=wrap;html=1;" vertex="1" parent="1">
          <mxGeometry x="1140" y="130" width="82.5" height="60" as="geometry" />
        </mxCell>
        <mxCell id="ZCHWy88z7wc9WbKpo-dU-56" value="permanent address" style="ellipse;whiteSpace=wrap;html=1;" vertex="1" parent="1">
          <mxGeometry x="1155" y="200" width="90" height="60" as="geometry" />
        </mxCell>
        <mxCell id="ZCHWy88z7wc9WbKpo-dU-57" value="permanent phone number" style="ellipse;whiteSpace=wrap;html=1;" vertex="1" parent="1">
          <mxGeometry x="1140" y="268" width="90" height="60" as="geometry" />
        </mxCell>
        <mxCell id="ZCHWy88z7wc9WbKpo-dU-58" value="birth date" style="ellipse;whiteSpace=wrap;html=1;" vertex="1" parent="1">
          <mxGeometry x="1110" y="340" width="80" height="50" as="geometry" />
        </mxCell>
        <mxCell id="ZCHWy88z7wc9WbKpo-dU-60" value="Letter grade" style="ellipse;whiteSpace=wrap;html=1;" vertex="1" parent="1">
          <mxGeometry x="670" y="430" width="70" height="40" as="geometry" />
        </mxCell>
        <mxCell id="ZCHWy88z7wc9WbKpo-dU-86" style="edgeStyle=none;shape=connector;rounded=0;orthogonalLoop=1;jettySize=auto;html=1;labelBackgroundColor=default;strokeColor=default;fontFamily=Helvetica;fontSize=12;fontColor=default;endArrow=none;endFill=0;" edge="1" parent="1" source="ZCHWy88z7wc9WbKpo-dU-61" target="ZCHWy88z7wc9WbKpo-dU-60">
          <mxGeometry relative="1" as="geometry" />
        </mxCell>
        <mxCell id="ZCHWy88z7wc9WbKpo-dU-87" style="edgeStyle=none;shape=connector;rounded=0;orthogonalLoop=1;jettySize=auto;html=1;entryX=0.5;entryY=0;entryDx=0;entryDy=0;labelBackgroundColor=default;strokeColor=default;fontFamily=Helvetica;fontSize=12;fontColor=default;endArrow=none;endFill=0;" edge="1" parent="1" source="ZCHWy88z7wc9WbKpo-dU-61" target="ZCHWy88z7wc9WbKpo-dU-38">
          <mxGeometry relative="1" as="geometry" />
        </mxCell>
        <mxCell id="ZCHWy88z7wc9WbKpo-dU-99" style="edgeStyle=none;shape=connector;rounded=0;orthogonalLoop=1;jettySize=auto;html=1;entryX=0.5;entryY=0;entryDx=0;entryDy=0;labelBackgroundColor=default;strokeColor=default;fontFamily=Helvetica;fontSize=12;fontColor=default;endArrow=none;endFill=0;" edge="1" parent="1" source="ZCHWy88z7wc9WbKpo-dU-61" target="ZCHWy88z7wc9WbKpo-dU-4">
          <mxGeometry relative="1" as="geometry" />
        </mxCell>
        <mxCell id="ZCHWy88z7wc9WbKpo-dU-61" value="Grade Report" style="rhombus;whiteSpace=wrap;html=1;rounded=1;strokeColor=default;fontFamily=Helvetica;fontSize=12;fontColor=default;fillColor=default;" vertex="1" parent="1">
          <mxGeometry x="785" y="365" width="90" height="90" as="geometry" />
        </mxCell>
        <mxCell id="ZCHWy88z7wc9WbKpo-dU-88" value="" style="ellipse;whiteSpace=wrap;html=1;rounded=1;strokeColor=default;fontFamily=Helvetica;fontSize=12;fontColor=default;fillColor=default;fillStyle=hatch;" vertex="1" parent="1">
          <mxGeometry x="1160" y="205" width="80" height="50" as="geometry" />
        </mxCell>
        <mxCell id="ZCHWy88z7wc9WbKpo-dU-91" value="" style="ellipse;whiteSpace=wrap;html=1;rounded=1;strokeColor=default;fontFamily=Helvetica;fontSize=12;fontColor=default;fillColor=default;fillStyle=hatch;" vertex="1" parent="1">
          <mxGeometry x="935" y="-15" width="70" height="40" as="geometry" />
        </mxCell>
        <mxCell id="ZCHWy88z7wc9WbKpo-dU-104" style="edgeStyle=none;shape=connector;rounded=0;orthogonalLoop=1;jettySize=auto;html=1;entryX=0;entryY=0.25;entryDx=0;entryDy=0;labelBackgroundColor=default;strokeColor=default;fontFamily=Helvetica;fontSize=12;fontColor=default;endArrow=none;endFill=0;" edge="1" parent="1" source="ZCHWy88z7wc9WbKpo-dU-101" target="ZCHWy88z7wc9WbKpo-dU-6">
          <mxGeometry relative="1" as="geometry" />
        </mxCell>
        <mxCell id="ZCHWy88z7wc9WbKpo-dU-101" value="Major" style="rhombus;whiteSpace=wrap;html=1;rounded=1;strokeColor=default;fontFamily=Helvetica;fontSize=12;fontColor=default;fillColor=default;" vertex="1" parent="1">
          <mxGeometry x="625" y="130" width="80" height="80" as="geometry" />
        </mxCell>
        <mxCell id="ZCHWy88z7wc9WbKpo-dU-106" style="edgeStyle=none;shape=connector;rounded=0;orthogonalLoop=1;jettySize=auto;html=1;entryX=0.25;entryY=0;entryDx=0;entryDy=0;labelBackgroundColor=default;strokeColor=default;fontFamily=Helvetica;fontSize=12;fontColor=default;endArrow=none;endFill=0;" edge="1" parent="1" source="ZCHWy88z7wc9WbKpo-dU-102" target="ZCHWy88z7wc9WbKpo-dU-6">
          <mxGeometry relative="1" as="geometry" />
        </mxCell>
        <mxCell id="ZCHWy88z7wc9WbKpo-dU-102" value="Minor" style="rhombus;whiteSpace=wrap;html=1;rounded=1;strokeColor=default;fontFamily=Helvetica;fontSize=12;fontColor=default;fillColor=default;" vertex="1" parent="1">
          <mxGeometry x="705" y="50" width="80" height="80" as="geometry" />
        </mxCell>
        <mxCell id="ZCHWy88z7wc9WbKpo-dU-109" style="edgeStyle=none;shape=connector;rounded=0;orthogonalLoop=1;jettySize=auto;html=1;entryX=0.625;entryY=-0.017;entryDx=0;entryDy=0;entryPerimeter=0;labelBackgroundColor=default;strokeColor=default;fontFamily=Helvetica;fontSize=12;fontColor=default;endArrow=none;endFill=0;" edge="1" parent="1" source="ZCHWy88z7wc9WbKpo-dU-107" target="ZCHWy88z7wc9WbKpo-dU-5">
          <mxGeometry relative="1" as="geometry" />
        </mxCell>
        <mxCell id="ZCHWy88z7wc9WbKpo-dU-107" value="Offering" style="rhombus;whiteSpace=wrap;html=1;rounded=1;strokeColor=default;fontFamily=Helvetica;fontSize=12;fontColor=default;fillColor=default;" vertex="1" parent="1">
          <mxGeometry x="390" y="120" width="80" height="80" as="geometry" />
        </mxCell>
        <mxCell id="ZCHWy88z7wc9WbKpo-dU-110" value="Section Number" style="ellipse;whiteSpace=wrap;html=1;rounded=1;strokeColor=default;fontFamily=Helvetica;fontSize=12;fontColor=default;fillColor=default;fontStyle=4" vertex="1" parent="1">
          <mxGeometry x="715" y="690" width="90" height="50" as="geometry" />
        </mxCell>
        <mxCell id="ZCHWy88z7wc9WbKpo-dU-115" style="edgeStyle=none;shape=connector;rounded=0;orthogonalLoop=1;jettySize=auto;html=1;labelBackgroundColor=default;strokeColor=default;fontFamily=Helvetica;fontSize=12;fontColor=default;endArrow=none;endFill=0;" edge="1" parent="1" source="ZCHWy88z7wc9WbKpo-dU-113" target="ZCHWy88z7wc9WbKpo-dU-4">
          <mxGeometry relative="1" as="geometry" />
        </mxCell>
        <mxCell id="ZCHWy88z7wc9WbKpo-dU-113" value="have" style="rhombus;whiteSpace=wrap;html=1;rounded=1;strokeColor=default;fontFamily=Helvetica;fontSize=12;fontColor=default;fillColor=default;" vertex="1" parent="1">
          <mxGeometry x="460" y="430" width="80" height="80" as="geometry" />
        </mxCell>
        <mxCell id="ZCHWy88z7wc9WbKpo-dU-116" value="(0, n)" style="text;html=1;align=center;verticalAlign=middle;resizable=0;points=[];autosize=1;strokeColor=none;fillColor=none;fontSize=12;fontFamily=Helvetica;fontColor=default;" vertex="1" parent="1">
          <mxGeometry x="665" y="28" width="50" height="30" as="geometry" />
        </mxCell>
        <mxCell id="ZCHWy88z7wc9WbKpo-dU-117" value="(0, n)" style="text;html=1;align=center;verticalAlign=middle;resizable=0;points=[];autosize=1;strokeColor=none;fillColor=none;fontSize=12;fontFamily=Helvetica;fontColor=default;" vertex="1" parent="1">
          <mxGeometry x="785" y="138" width="50" height="30" as="geometry" />
        </mxCell>
        <mxCell id="ZCHWy88z7wc9WbKpo-dU-118" value="(1, n)" style="text;html=1;align=center;verticalAlign=middle;resizable=0;points=[];autosize=1;strokeColor=none;fillColor=none;fontSize=12;fontFamily=Helvetica;fontColor=default;" vertex="1" parent="1">
          <mxGeometry x="715" y="218" width="50" height="30" as="geometry" />
        </mxCell>
        <mxCell id="ZCHWy88z7wc9WbKpo-dU-119" value="(1, 1)" style="text;html=1;align=center;verticalAlign=middle;resizable=0;points=[];autosize=1;strokeColor=none;fillColor=none;fontSize=12;fontFamily=Helvetica;fontColor=default;" vertex="1" parent="1">
          <mxGeometry x="570" y="88" width="50" height="30" as="geometry" />
        </mxCell>
        <mxCell id="ZCHWy88z7wc9WbKpo-dU-120" value="(1, 1)" style="text;html=1;align=center;verticalAlign=middle;resizable=0;points=[];autosize=1;strokeColor=none;fillColor=none;fontSize=12;fontFamily=Helvetica;fontColor=default;" vertex="1" parent="1">
          <mxGeometry x="455" y="48" width="50" height="30" as="geometry" />
        </mxCell>
        <mxCell id="ZCHWy88z7wc9WbKpo-dU-121" value="(0, n)" style="text;html=1;align=center;verticalAlign=middle;resizable=0;points=[];autosize=1;strokeColor=none;fillColor=none;fontSize=12;fontFamily=Helvetica;fontColor=default;" vertex="1" parent="1">
          <mxGeometry x="315" y="198" width="50" height="30" as="geometry" />
        </mxCell>
        <mxCell id="ZCHWy88z7wc9WbKpo-dU-122" value="(1, 1)" style="text;html=1;align=center;verticalAlign=middle;resizable=0;points=[];autosize=1;strokeColor=none;fillColor=none;fontSize=12;fontFamily=Helvetica;fontColor=default;" vertex="1" parent="1">
          <mxGeometry x="365" y="408" width="50" height="30" as="geometry" />
        </mxCell>
        <mxCell id="ZCHWy88z7wc9WbKpo-dU-123" value="(0, n)" style="text;html=1;align=center;verticalAlign=middle;resizable=0;points=[];autosize=1;strokeColor=none;fillColor=none;fontSize=12;fontFamily=Helvetica;fontColor=default;" vertex="1" parent="1">
          <mxGeometry x="595" y="538" width="50" height="30" as="geometry" />
        </mxCell>
        <mxCell id="ZCHWy88z7wc9WbKpo-dU-124" value="(1, 1)" style="text;html=1;align=center;verticalAlign=middle;resizable=0;points=[];autosize=1;strokeColor=none;fillColor=none;fontSize=12;fontFamily=Helvetica;fontColor=default;" vertex="1" parent="1">
          <mxGeometry x="795" y="328" width="50" height="30" as="geometry" />
        </mxCell>
        <mxCell id="ZCHWy88z7wc9WbKpo-dU-125" value="(1, n)" style="text;html=1;align=center;verticalAlign=middle;resizable=0;points=[];autosize=1;strokeColor=none;fillColor=none;fontSize=12;fontFamily=Helvetica;fontColor=default;" vertex="1" parent="1">
          <mxGeometry x="755" y="508" width="50" height="30" as="geometry" />
        </mxCell>
      </root>
    </mxGraphModel>
  </diagram>
</mxfile>
